<svg width="24" height="24" viewBox="0 0 24 24" fill="none" xmlns="http://www.w3.org/2000/svg">
<g clip-path="url(#clip0)">
<path d="M21.4142 0H2.586C1.15997 0 0 1.15997 0 2.586V16.3784C0 17.8043 1.15997 18.9642 2.586 18.9642H8.55304L10.5291 22.9166C10.8734 23.605 11.4095 24 12 24C12.5905 24 13.1266 23.605 13.4709 22.9166L15.4471 18.9642H21.4142C22.84 18.9642 24 17.8043 24 16.3784V2.586C24 1.15997 22.84 0 21.4142 0V0ZM22.5938 16.3784C22.5938 17.0288 22.0646 17.558 21.4142 17.558H15.0126C14.7462 17.558 14.5029 17.7085 14.3837 17.9467L12.2131 22.2876C12.1256 22.4626 12.0434 22.5487 12 22.5817C11.9566 22.5487 11.8744 22.4626 11.7869 22.2876L9.61633 17.9467C9.49731 17.7085 9.25378 17.558 8.98755 17.558H2.586C1.93542 17.558 1.40625 17.0288 1.40625 16.3784V2.586C1.40625 1.93542 1.93542 1.40625 2.586 1.40625H21.4142C22.0646 1.40625 22.5938 1.93542 22.5938 2.586V16.3784Z" fill="#B1B9C7"/>
</g>
<defs>
<clipPath id="clip0">
<rect width="24" height="24" fill="white"/>
</clipPath>
</defs>
</svg>
