<svg width="24" height="24" viewBox="0 0 24 24" fill="none" xmlns="http://www.w3.org/2000/svg">
<g clip-path="url(#clip0)">
<path d="M23.7073 10.7937L14.7125 1.79893C14.0829 1.16935 13.0064 1.61524 13.0064 2.50563V6.50789C7.28204 6.74583 2.23292 10.6435 0.632791 16.1905C0.0984445 18.0422 -0.0348844 19.566 0.00723178 21.2061C0.0125256 21.3986 0.0138842 21.4542 0.0138842 21.4946C0.0138842 22.5101 1.35275 22.8784 1.87215 22.0058C2.98558 20.135 4.25019 18.6894 5.63558 17.6208C8.14015 15.6892 10.7477 15.1298 13.0064 15.3557V20.4952C13.0064 21.3856 14.0829 21.8315 14.7125 21.2019L23.7073 12.2071C24.0976 11.8168 24.0976 11.184 23.7073 10.7937ZM15.0052 18.0824V14.4987C15.0052 14.0408 14.6941 13.6415 14.2502 13.5296C14.1286 13.4989 13.9266 13.4587 13.6525 13.4204C10.8215 13.0243 7.53263 13.6334 4.41486 16.038C3.64792 16.6295 2.91756 17.3169 2.22763 18.1043L2.2429 18.0243C2.32259 17.6139 2.42463 17.1902 2.55322 16.7446C3.97974 11.7994 8.64503 8.38653 13.8113 8.49789C13.8986 8.49944 13.9309 8.50014 13.9713 8.50154C14.5364 8.52103 15.0052 8.0682 15.0052 7.5027V4.91844L21.5872 11.5004L15.0052 18.0824Z" fill="#B1B9C7"/>
</g>
<defs>
<clipPath id="clip0">
<rect width="24" height="24" fill="white"/>
</clipPath>
</defs>
</svg>
