<svg width="24" height="24" viewBox="0 0 24 24" fill="none" xmlns="http://www.w3.org/2000/svg">
<path d="M17.1949 2.06553C15.1929 2.05483 13.2896 2.93409 12 4.4655C10.7184 2.92363 8.80988 2.04186 6.80503 2.06553C3.0467 2.06553 0 5.11223 0 8.87055C0 15.3111 11.2405 21.5997 11.6962 21.8427C11.8801 21.9656 12.1199 21.9656 12.3038 21.8427C12.7595 21.5997 24 15.4022 24 8.87055C24 5.11223 20.9532 2.06553 17.1949 2.06553ZM12 20.6275C10.238 19.5946 1.21519 14.0959 1.21519 8.87055C1.21519 5.78338 3.71785 3.28066 6.80508 3.28066C8.69561 3.25583 10.4648 4.20941 11.4836 5.80216C11.6904 6.08738 12.0893 6.15094 12.3746 5.94405C12.4291 5.90451 12.477 5.85665 12.5164 5.80216C14.206 3.21833 17.6702 2.49333 20.2541 4.18284C21.8358 5.21713 22.7879 6.9806 22.7848 8.8705C22.7848 14.1566 13.762 19.625 12 20.6275Z" fill="#B1B9C7"/>
</svg>
