<svg width="20" height="20" viewBox="0 0 20 20" fill="none" xmlns="http://www.w3.org/2000/svg">
<g clip-path="url(#clip0)">
<path d="M2.91115 18.8051H1.49401L2.4961 17.803C3.03641 17.2626 3.37382 16.5599 3.46453 15.7975C2.05459 14.8723 1.02358 13.6549 0.471684 12.2589C-0.079823 10.8639 -0.149128 9.32826 0.271282 7.81795C0.775712 6.00572 1.95883 4.35394 3.60263 3.16682C5.38892 1.87687 7.61264 1.19501 10.0334 1.19501C13.083 1.19501 15.6534 2.07117 17.4667 3.7287C19.1003 5.22199 20 7.23623 20 9.40043C20 10.4519 19.7859 11.4749 19.3637 12.4412C18.9268 13.4411 18.287 14.3314 17.4621 15.0874C15.6463 16.7514 13.0775 17.631 10.0334 17.631C8.90333 17.631 7.72413 17.4802 6.67132 17.2034C5.67479 18.2256 4.32441 18.8051 2.91115 18.8051V18.8051ZM10.0334 2.36901C5.17936 2.36901 2.20087 5.26383 1.40228 8.13278C0.647628 10.8439 1.76007 13.4057 4.3781 14.9856L4.67062 15.1622L4.66162 15.5037C4.64378 16.1797 4.48263 16.8308 4.19417 17.4193C4.89658 17.1817 5.53395 16.7508 6.03305 16.1612L6.28124 15.8679L6.64929 15.978C7.68214 16.2869 8.88396 16.457 10.0334 16.457C16.0745 16.457 18.826 12.7991 18.826 9.40043C18.826 7.56992 18.062 5.86339 16.6746 4.59523C15.0814 3.13884 12.7849 2.36901 10.0334 2.36901V2.36901Z" fill="#6E96C3"/>
</g>
<defs>
<clipPath id="clip0">
<rect width="20" height="20" fill="white"/>
</clipPath>
</defs>
</svg>
