<svg width="24" height="24" viewBox="0 0 24 24" fill="none" xmlns="http://www.w3.org/2000/svg">
<path d="M0.508059 19.1944H0.516017C0.518311 19.1944 0.521307 19.1938 0.52467 19.1916C0.527825 19.1895 0.530306 19.1867 0.531998 19.1829C0.648704 18.909 2.2647 15.4346 8.0245 14.7521C8.02456 14.752 8.0246 14.752 8.02465 14.752L8.08349 15.2486C9.12275 15.1235 10.3503 15.0509 11.8067 15.0299L0.508059 19.1944ZM0.508059 19.1944C0.505845 19.193 0.504274 19.1915 0.503116 19.1901C0.500655 19.1871 0.5 19.1846 0.5 19.1819C0.5 15.2223 2.83226 12.8117 5.52346 11.3269C8.22777 9.83487 11.2303 9.32144 12.3679 9.17297L12.8032 9.11617V8.67718V4.81807C12.8032 4.8151 12.8039 4.81259 12.8055 4.81003C12.8065 4.80837 12.808 4.80647 12.8102 4.80459L0.508059 19.1944Z" stroke="#B1B9C7"/>
</svg>
