<svg width="24" height="24" viewBox="0 0 24 24" fill="none" xmlns="http://www.w3.org/2000/svg">
<path d="M23.9111 11.716C23.7221 11.441 19.18 4.99988 11.9999 4.99988C5.83883 4.99988 0.348744 11.404 0.11774 11.677C-0.0392467 11.863 -0.0392467 12.136 0.11774 12.323C0.348744 12.596 5.83883 19.0001 11.9999 19.0001C18.1611 19.0001 23.6511 12.596 23.8821 12.323C24.0271 12.151 24.0401 11.902 23.9111 11.716ZM11.9999 18.0001C7.06088 18.0001 2.36478 13.29 1.17179 12C2.36281 10.709 7.0539 5.99992 11.9999 5.99992C17.779 5.99992 21.8581 10.703 22.8541 11.973C21.7041 13.222 16.981 18.0001 11.9999 18.0001Z" fill="#B1B9C7"/>
<path d="M12 7.99994C9.79397 7.99994 7.99994 9.79397 7.99994 12C7.99994 14.206 9.79397 16 12 16C14.206 16 16 14.206 16 12C16 9.79397 14.206 7.99994 12 7.99994ZM12 15.0001C10.346 15.0001 8.99994 13.6541 8.99994 12C8.99994 10.346 10.346 8.99999 12 8.99999C13.654 8.99999 15 10.346 15 12C15 13.6541 13.654 15.0001 12 15.0001Z" fill="#B1B9C7"/>
</svg>
